<?xml version="1.0" encoding="UTF-8" standalone="no"?>
<!DOCTYPE svg PUBLIC "-//W3C//DTD SVG 1.1//EN"
 "http://www.w3.org/Graphics/SVG/1.1/DTD/svg11.dtd">
<!-- Generated by graphviz version 2.43.0 (0)
 -->
<!-- Title: models_diagram Pages: 1 -->
<svg width="1365pt" height="967pt"
 viewBox="0.00 0.00 1364.50 967.00" xmlns="http://www.w3.org/2000/svg" xmlns:xlink="http://www.w3.org/1999/xlink">
<g id="graph0" class="graph" transform="scale(1 1) rotate(0) translate(4 963)">
<title>models_diagram</title>
<polygon fill="transparent" stroke="transparent" points="-4,4 -4,-963 1360.5,-963 1360.5,4 -4,4"/>
<!-- Answer -->
<g id="node1" class="node">
<title>Answer</title>
<path fill="none" stroke="black" d="M12,-837.5C12,-837.5 323,-837.5 323,-837.5 329,-837.5 335,-843.5 335,-849.5 335,-849.5 335,-946.5 335,-946.5 335,-952.5 329,-958.5 323,-958.5 323,-958.5 12,-958.5 12,-958.5 6,-958.5 0,-952.5 0,-946.5 0,-946.5 0,-849.5 0,-849.5 0,-843.5 6,-837.5 12,-837.5"/>
<text text-anchor="middle" x="167.5" y="-943.3" font-family="Times,serif" font-size="14.00">Answer</text>
<polyline fill="none" stroke="black" points="0,-935.5 335,-935.5 "/>
<text text-anchor="start" x="8" y="-920.3" font-family="Times,serif" font-size="14.00">id :uuid</text>
<text text-anchor="start" x="8" y="-905.3" font-family="Times,serif" font-size="14.00">user_id :uuid</text>
<text text-anchor="start" x="8" y="-890.3" font-family="Times,serif" font-size="14.00">survey_id :uuid</text>
<text text-anchor="start" x="8" y="-875.3" font-family="Times,serif" font-size="14.00">answer_id :character varying</text>
<text text-anchor="start" x="8" y="-860.3" font-family="Times,serif" font-size="14.00">created_at :timestamp(6) without time zone</text>
<text text-anchor="start" x="8" y="-845.3" font-family="Times,serif" font-size="14.00">updated_at :timestamp(6) without time zone</text>
</g>
<!-- Survey -->
<g id="node9" class="node">
<title>Survey</title>
<path fill="none" stroke="black" d="M223,-633.5C223,-633.5 534,-633.5 534,-633.5 540,-633.5 546,-639.5 546,-645.5 546,-645.5 546,-787.5 546,-787.5 546,-793.5 540,-799.5 534,-799.5 534,-799.5 223,-799.5 223,-799.5 217,-799.5 211,-793.5 211,-787.5 211,-787.5 211,-645.5 211,-645.5 211,-639.5 217,-633.5 223,-633.5"/>
<text text-anchor="middle" x="378.5" y="-784.3" font-family="Times,serif" font-size="14.00">Survey</text>
<polyline fill="none" stroke="black" points="211,-776.5 546,-776.5 "/>
<text text-anchor="start" x="219" y="-761.3" font-family="Times,serif" font-size="14.00">id :uuid</text>
<text text-anchor="start" x="219" y="-746.3" font-family="Times,serif" font-size="14.00">name :character varying</text>
<text text-anchor="start" x="219" y="-731.3" font-family="Times,serif" font-size="14.00">question_id :character varying</text>
<text text-anchor="start" x="219" y="-716.3" font-family="Times,serif" font-size="14.00">actived :boolean</text>
<text text-anchor="start" x="219" y="-701.3" font-family="Times,serif" font-size="14.00">private :boolean</text>
<text text-anchor="start" x="219" y="-686.3" font-family="Times,serif" font-size="14.00">start_date :timestamp(6) without time zone</text>
<text text-anchor="start" x="219" y="-671.3" font-family="Times,serif" font-size="14.00">end_date :timestamp(6) without time zone</text>
<text text-anchor="start" x="219" y="-656.3" font-family="Times,serif" font-size="14.00">created_at :timestamp(6) without time zone</text>
<text text-anchor="start" x="219" y="-641.3" font-family="Times,serif" font-size="14.00">updated_at :timestamp(6) without time zone</text>
</g>
<!-- Answer&#45;&gt;Survey -->
<g id="edge2" class="edge">
<title>Answer&#45;&gt;Survey</title>
<path fill="none" stroke="#7b2242" d="M245.25,-830.86C254.69,-822.82 264.46,-814.52 274.2,-806.23"/>
<polygon fill="#7b2242" stroke="#7b2242" points="245.08,-831 234.55,-834.05 241.28,-834.24 237.47,-837.48 237.47,-837.48 237.47,-837.48 241.28,-834.24 240.38,-840.91 245.08,-831 245.08,-831"/>
<polygon fill="#7b2242" stroke="#7b2242" points="274.4,-806.06 284.93,-803.01 278.2,-802.82 282.01,-799.58 282.01,-799.58 282.01,-799.58 278.2,-802.82 279.1,-796.15 274.4,-806.06 274.4,-806.06"/>
</g>
<!-- User -->
<g id="node10" class="node">
<title>User</title>
<path fill="none" stroke="black" d="M404,-332.5C404,-332.5 715,-332.5 715,-332.5 721,-332.5 727,-338.5 727,-344.5 727,-344.5 727,-426.5 727,-426.5 727,-432.5 721,-438.5 715,-438.5 715,-438.5 404,-438.5 404,-438.5 398,-438.5 392,-432.5 392,-426.5 392,-426.5 392,-344.5 392,-344.5 392,-338.5 398,-332.5 404,-332.5"/>
<text text-anchor="middle" x="559.5" y="-423.3" font-family="Times,serif" font-size="14.00">User</text>
<polyline fill="none" stroke="black" points="392,-415.5 727,-415.5 "/>
<text text-anchor="start" x="400" y="-400.3" font-family="Times,serif" font-size="14.00">id :uuid</text>
<text text-anchor="start" x="400" y="-385.3" font-family="Times,serif" font-size="14.00">name :character varying</text>
<text text-anchor="start" x="400" y="-370.3" font-family="Times,serif" font-size="14.00">birthday :date</text>
<text text-anchor="start" x="400" y="-355.3" font-family="Times,serif" font-size="14.00">created_at :timestamp(6) without time zone</text>
<text text-anchor="start" x="400" y="-340.3" font-family="Times,serif" font-size="14.00">updated_at :timestamp(6) without time zone</text>
</g>
<!-- Answer&#45;&gt;User -->
<g id="edge1" class="edge">
<title>Answer&#45;&gt;User</title>
<path fill="none" stroke="#70d4b5" d="M158.48,-827.12C150.97,-741.36 149.97,-594.48 212.5,-490 225.8,-467.79 236.71,-467.21 260.5,-457 295.98,-441.77 307.85,-447.6 345.5,-439 357.42,-436.28 369.7,-433.42 382.06,-430.49"/>
<polygon fill="#70d4b5" stroke="#70d4b5" points="158.5,-827.31 154.94,-837.68 158.96,-832.29 159.42,-837.27 159.42,-837.27 159.42,-837.27 158.96,-832.29 163.9,-836.85 158.5,-827.31 158.5,-827.31"/>
<polygon fill="#70d4b5" stroke="#70d4b5" points="382.25,-430.45 393.02,-432.52 387.12,-429.29 391.98,-428.14 391.98,-428.14 391.98,-428.14 387.12,-429.29 390.94,-423.76 382.25,-430.45 382.25,-430.45"/>
</g>
<!-- AnswerDatum -->
<g id="node2" class="node">
<title>AnswerDatum</title>
<path fill="none" stroke="black" d="M365.5,-852.5C365.5,-852.5 535.5,-852.5 535.5,-852.5 541.5,-852.5 547.5,-858.5 547.5,-864.5 547.5,-864.5 547.5,-931.5 547.5,-931.5 547.5,-937.5 541.5,-943.5 535.5,-943.5 535.5,-943.5 365.5,-943.5 365.5,-943.5 359.5,-943.5 353.5,-937.5 353.5,-931.5 353.5,-931.5 353.5,-864.5 353.5,-864.5 353.5,-858.5 359.5,-852.5 365.5,-852.5"/>
<text text-anchor="middle" x="450.5" y="-928.3" font-family="Times,serif" font-size="14.00">AnswerDatum</text>
<polyline fill="none" stroke="black" points="353.5,-920.5 547.5,-920.5 "/>
<text text-anchor="start" x="361.5" y="-905.3" font-family="Times,serif" font-size="14.00">_id :BSON::ObjectId</text>
<text text-anchor="start" x="361.5" y="-890.3" font-family="Times,serif" font-size="14.00">created_at :Time</text>
<text text-anchor="start" x="361.5" y="-875.3" font-family="Times,serif" font-size="14.00">questions_count :Integer</text>
<text text-anchor="start" x="361.5" y="-860.3" font-family="Times,serif" font-size="14.00">updated_at :Time</text>
</g>
<!-- FieldType -->
<g id="node3" class="node">
<title>FieldType</title>
<path fill="none" stroke="black" d="M578,-852.5C578,-852.5 889,-852.5 889,-852.5 895,-852.5 901,-858.5 901,-864.5 901,-864.5 901,-931.5 901,-931.5 901,-937.5 895,-943.5 889,-943.5 889,-943.5 578,-943.5 578,-943.5 572,-943.5 566,-937.5 566,-931.5 566,-931.5 566,-864.5 566,-864.5 566,-858.5 572,-852.5 578,-852.5"/>
<text text-anchor="middle" x="733.5" y="-928.3" font-family="Times,serif" font-size="14.00">FieldType</text>
<polyline fill="none" stroke="black" points="566,-920.5 901,-920.5 "/>
<text text-anchor="start" x="574" y="-905.3" font-family="Times,serif" font-size="14.00">id :bigint</text>
<text text-anchor="start" x="574" y="-890.3" font-family="Times,serif" font-size="14.00">name :character varying</text>
<text text-anchor="start" x="574" y="-875.3" font-family="Times,serif" font-size="14.00">created_at :timestamp(6) without time zone</text>
<text text-anchor="start" x="574" y="-860.3" font-family="Times,serif" font-size="14.00">updated_at :timestamp(6) without time zone</text>
</g>
<!-- Group -->
<g id="node4" class="node">
<title>Group</title>
<path fill="none" stroke="black" d="M464,-490.5C464,-490.5 775,-490.5 775,-490.5 781,-490.5 787,-496.5 787,-502.5 787,-502.5 787,-569.5 787,-569.5 787,-575.5 781,-581.5 775,-581.5 775,-581.5 464,-581.5 464,-581.5 458,-581.5 452,-575.5 452,-569.5 452,-569.5 452,-502.5 452,-502.5 452,-496.5 458,-490.5 464,-490.5"/>
<text text-anchor="middle" x="619.5" y="-566.3" font-family="Times,serif" font-size="14.00">Group</text>
<polyline fill="none" stroke="black" points="452,-558.5 787,-558.5 "/>
<text text-anchor="start" x="460" y="-543.3" font-family="Times,serif" font-size="14.00">id :uuid</text>
<text text-anchor="start" x="460" y="-528.3" font-family="Times,serif" font-size="14.00">name :character varying</text>
<text text-anchor="start" x="460" y="-513.3" font-family="Times,serif" font-size="14.00">created_at :timestamp(6) without time zone</text>
<text text-anchor="start" x="460" y="-498.3" font-family="Times,serif" font-size="14.00">updated_at :timestamp(6) without time zone</text>
</g>
<!-- Group&#45;&gt;Group -->
<g id="edge4" class="edge">
<title>Group&#45;&gt;Group</title>
<path fill="none" stroke="#7972af" d="M797.26,-537.67C802.21,-537.22 805,-536.66 805,-536 805,-535.34 802.21,-534.78 797.26,-534.33"/>
<polygon fill="#7972af" stroke="#7972af" points="796.99,-537.69 786.71,-533.87 792,-538.02 787.01,-538.36 787.01,-538.36 787.01,-538.36 792,-538.02 787.31,-542.85 796.99,-537.69 796.99,-537.69"/>
<polygon fill="#7972af" stroke="#7972af" points="796.99,-534.31 787.31,-529.15 792,-533.98 787.01,-533.64 787.01,-533.64 787.01,-533.64 792,-533.98 786.71,-538.13 796.99,-534.31 796.99,-534.31"/>
<text text-anchor="middle" x="854.5" y="-532.3" font-family="Times,serif" font-size="14.00">entity_groups</text>
</g>
<!-- Group&#45;&gt;Group -->
<g id="edge8" class="edge">
<title>Group&#45;&gt;Group</title>
<path fill="none" stroke="#5437ae" d="M797.38,-542.54C855.6,-542.32 904,-540.14 904,-536 904,-531.86 855.6,-529.68 797.38,-529.46"/>
<polygon fill="#5437ae" stroke="#5437ae" points="797.19,-542.54 787.18,-538.06 792.19,-542.55 787.19,-542.56 787.19,-542.56 787.19,-542.56 792.19,-542.55 787.2,-547.06 797.19,-542.54 797.19,-542.54"/>
<polygon fill="#5437ae" stroke="#5437ae" points="797.19,-529.46 787.2,-524.94 792.19,-529.45 787.19,-529.44 787.19,-529.44 787.19,-529.44 792.19,-529.45 787.18,-533.94 797.19,-529.46 797.19,-529.46"/>
<text text-anchor="middle" x="954.5" y="-532.3" font-family="Times,serif" font-size="14.00">owner_groups</text>
</g>
<!-- Group&#45;&gt;Group -->
<g id="edge12" class="edge">
<title>Group&#45;&gt;Group</title>
<path fill="none" stroke="#ae2280" d="M797.28,-545.59C899.88,-546.82 1005,-543.62 1005,-536 1005,-528.38 899.88,-525.18 797.28,-526.41"/>
<polygon fill="#ae2280" stroke="#ae2280" points="797.04,-545.58 787.1,-540.95 792.04,-545.52 787.04,-545.45 787.04,-545.45 787.04,-545.45 792.04,-545.52 786.98,-549.95 797.04,-545.58 797.04,-545.58"/>
<polygon fill="#ae2280" stroke="#ae2280" points="797.04,-526.42 786.98,-522.05 792.04,-526.48 787.04,-526.55 787.04,-526.55 787.04,-526.55 792.04,-526.48 787.1,-531.05 797.04,-526.42 797.04,-526.42"/>
<text text-anchor="middle" x="1063" y="-532.3" font-family="Times,serif" font-size="14.00">member_groups</text>
</g>
<!-- Group&#45;&gt;Group -->
<g id="edge14" class="edge">
<title>Group&#45;&gt;Group</title>
<path fill="none" stroke="#5fac29" d="M797.11,-547.96C943.57,-551.34 1121,-547.35 1121,-536 1121,-524.65 943.57,-520.66 797.11,-524.04"/>
<polygon fill="#5fac29" stroke="#5fac29" points="797.07,-547.96 787.18,-543.22 792.07,-547.84 787.07,-547.72 787.07,-547.72 787.07,-547.72 792.07,-547.84 786.96,-552.22 797.07,-547.96 797.07,-547.96"/>
<polygon fill="#5fac29" stroke="#5fac29" points="797.07,-524.04 786.96,-519.78 792.07,-524.16 787.07,-524.28 787.07,-524.28 787.07,-524.28 792.07,-524.16 787.18,-528.78 797.07,-524.04 797.07,-524.04"/>
</g>
<!-- GroupMember -->
<g id="node5" class="node">
<title>GroupMember</title>
<path fill="none" stroke="black" d="M208,-144.5C208,-144.5 519,-144.5 519,-144.5 525,-144.5 531,-150.5 531,-156.5 531,-156.5 531,-253.5 531,-253.5 531,-259.5 525,-265.5 519,-265.5 519,-265.5 208,-265.5 208,-265.5 202,-265.5 196,-259.5 196,-253.5 196,-253.5 196,-156.5 196,-156.5 196,-150.5 202,-144.5 208,-144.5"/>
<text text-anchor="middle" x="363.5" y="-250.3" font-family="Times,serif" font-size="14.00">GroupMember</text>
<polyline fill="none" stroke="black" points="196,-242.5 531,-242.5 "/>
<text text-anchor="start" x="204" y="-227.3" font-family="Times,serif" font-size="14.00">id :uuid</text>
<text text-anchor="start" x="204" y="-212.3" font-family="Times,serif" font-size="14.00">member_type :mem_types</text>
<text text-anchor="start" x="204" y="-197.3" font-family="Times,serif" font-size="14.00">member_id :uuid</text>
<text text-anchor="start" x="204" y="-182.3" font-family="Times,serif" font-size="14.00">group_id :uuid</text>
<text text-anchor="start" x="204" y="-167.3" font-family="Times,serif" font-size="14.00">created_at :timestamp(6) without time zone</text>
<text text-anchor="start" x="204" y="-152.3" font-family="Times,serif" font-size="14.00">updated_at :timestamp(6) without time zone</text>
</g>
<!-- Group&#45;&gt;GroupMember -->
<g id="edge10" class="edge">
<title>Group&#45;&gt;GroupMember</title>
<path fill="none" stroke="#905953" d="M442.19,-488.15C409.99,-479.46 386.18,-472.82 385.5,-472 340.47,-418.01 341.09,-334.58 349.06,-275.57"/>
<polygon fill="#905953" stroke="#905953" points="442.29,-488.18 450.78,-495.13 447.12,-489.48 451.95,-490.78 451.95,-490.78 451.95,-490.78 447.12,-489.48 453.12,-486.43 442.29,-488.18 442.29,-488.18"/>
<polygon fill="#905953" stroke="#905953" points="349.08,-275.49 354.97,-266.24 349.79,-270.54 350.51,-265.59 350.51,-265.59 350.51,-265.59 349.79,-270.54 346.06,-264.94 349.08,-275.49 349.08,-275.49"/>
</g>
<!-- Group&#45;&gt;GroupMember -->
<g id="edge13" class="edge">
<title>Group&#45;&gt;GroupMember</title>
<path fill="none" stroke="#70ea85" d="M441.57,-489.06C362.33,-476.78 179.89,-490.08 136.5,-439 105.71,-402.75 112.38,-372.98 136.5,-332 150.87,-307.59 171.86,-287.57 195.36,-271.26"/>
<polygon fill="#70ea85" stroke="#70ea85" points="441.75,-489.09 450.79,-495.3 446.67,-489.98 451.59,-490.88 451.59,-490.88 451.59,-490.88 446.67,-489.98 452.39,-486.45 441.75,-489.09 441.75,-489.09"/>
<polygon fill="#70ea85" stroke="#70ea85" points="195.45,-271.2 206.27,-269.39 199.61,-268.42 203.77,-265.64 203.77,-265.64 203.77,-265.64 199.61,-268.42 201.27,-261.9 195.45,-271.2 195.45,-271.2"/>
<text text-anchor="middle" x="239" y="-381.8" font-family="Times,serif" font-size="14.00">group_members_as_member</text>
</g>
<!-- Permission -->
<g id="node6" class="node">
<title>Permission</title>
<path fill="none" stroke="black" d="M830,-129.5C830,-129.5 1141,-129.5 1141,-129.5 1147,-129.5 1153,-135.5 1153,-141.5 1153,-141.5 1153,-268.5 1153,-268.5 1153,-274.5 1147,-280.5 1141,-280.5 1141,-280.5 830,-280.5 830,-280.5 824,-280.5 818,-274.5 818,-268.5 818,-268.5 818,-141.5 818,-141.5 818,-135.5 824,-129.5 830,-129.5"/>
<text text-anchor="middle" x="985.5" y="-265.3" font-family="Times,serif" font-size="14.00">Permission</text>
<polyline fill="none" stroke="black" points="818,-257.5 1153,-257.5 "/>
<text text-anchor="start" x="826" y="-242.3" font-family="Times,serif" font-size="14.00">id :uuid</text>
<text text-anchor="start" x="826" y="-227.3" font-family="Times,serif" font-size="14.00">owner_type :owner_names</text>
<text text-anchor="start" x="826" y="-212.3" font-family="Times,serif" font-size="14.00">owner_id :uuid</text>
<text text-anchor="start" x="826" y="-197.3" font-family="Times,serif" font-size="14.00">entity_type :entity_names</text>
<text text-anchor="start" x="826" y="-182.3" font-family="Times,serif" font-size="14.00">entity_id :uuid</text>
<text text-anchor="start" x="826" y="-167.3" font-family="Times,serif" font-size="14.00">role_id :uuid</text>
<text text-anchor="start" x="826" y="-152.3" font-family="Times,serif" font-size="14.00">created_at :timestamp(6) without time zone</text>
<text text-anchor="start" x="826" y="-137.3" font-family="Times,serif" font-size="14.00">updated_at :timestamp(6) without time zone</text>
</g>
<!-- Group&#45;&gt;Permission -->
<g id="edge3" class="edge">
<title>Group&#45;&gt;Permission</title>
<path fill="none" stroke="#cce2e3" d="M779.1,-484.25C783.85,-480.46 788.34,-476.38 792.5,-472 837.33,-424.81 799.55,-386.26 835.5,-332 845.98,-316.19 859.01,-301.28 872.98,-287.64"/>
<polygon fill="#cce2e3" stroke="#cce2e3" points="778.91,-484.4 768.2,-486.76 774.9,-487.38 770.89,-490.37 770.89,-490.37 770.89,-490.37 774.9,-487.38 773.57,-493.98 778.91,-484.4 778.91,-484.4"/>
<polygon fill="#cce2e3" stroke="#cce2e3" points="873.12,-287.51 883.47,-283.89 876.75,-284.07 880.37,-280.62 880.37,-280.62 880.37,-280.62 876.75,-284.07 877.27,-277.36 873.12,-287.51 873.12,-287.51"/>
<text text-anchor="middle" x="915.5" y="-381.8" font-family="Times,serif" font-size="14.00">permissions_as_owner</text>
</g>
<!-- Group&#45;&gt;Permission -->
<g id="edge7" class="edge">
<title>Group&#45;&gt;Permission</title>
<path fill="none" stroke="#fe9320" d="M797.18,-510.82C881.77,-495.3 970.01,-471.82 995.5,-439 1027.57,-397.72 1024.75,-338.81 1014.07,-290.56"/>
<polygon fill="#fe9320" stroke="#fe9320" points="796.99,-510.86 786.35,-508.2 792.07,-511.74 787.15,-512.63 787.15,-512.63 787.15,-512.63 792.07,-511.74 787.95,-517.06 796.99,-510.86 796.99,-510.86"/>
<polygon fill="#fe9320" stroke="#fe9320" points="1014.05,-290.48 1016.14,-279.72 1012.91,-285.62 1011.76,-280.75 1011.76,-280.75 1011.76,-280.75 1012.91,-285.62 1007.38,-281.78 1014.05,-290.48 1014.05,-290.48"/>
<text text-anchor="middle" x="1099.5" y="-381.8" font-family="Times,serif" font-size="14.00">permissions_as_entity</text>
</g>
<!-- Role -->
<g id="node8" class="node">
<title>Role</title>
<path fill="none" stroke="black" d="M605,-0.5C605,-0.5 916,-0.5 916,-0.5 922,-0.5 928,-6.5 928,-12.5 928,-12.5 928,-79.5 928,-79.5 928,-85.5 922,-91.5 916,-91.5 916,-91.5 605,-91.5 605,-91.5 599,-91.5 593,-85.5 593,-79.5 593,-79.5 593,-12.5 593,-12.5 593,-6.5 599,-0.5 605,-0.5"/>
<text text-anchor="middle" x="760.5" y="-76.3" font-family="Times,serif" font-size="14.00">Role</text>
<polyline fill="none" stroke="black" points="593,-68.5 928,-68.5 "/>
<text text-anchor="start" x="601" y="-53.3" font-family="Times,serif" font-size="14.00">id :uuid</text>
<text text-anchor="start" x="601" y="-38.3" font-family="Times,serif" font-size="14.00">name :character varying</text>
<text text-anchor="start" x="601" y="-23.3" font-family="Times,serif" font-size="14.00">created_at :timestamp(6) without time zone</text>
<text text-anchor="start" x="601" y="-8.3" font-family="Times,serif" font-size="14.00">updated_at :timestamp(6) without time zone</text>
</g>
<!-- Group&#45;&gt;Role -->
<g id="edge6" class="edge">
<title>Group&#45;&gt;Role</title>
<path fill="none" stroke="#94e028" d="M730.13,-483.31C733.54,-479.77 736.69,-476 739.5,-472 817.98,-360.39 794.15,-188.62 774.79,-101.58"/>
<polygon fill="#94e028" stroke="#94e028" points="730.05,-483.39 719.7,-487.01 726.42,-486.83 722.79,-490.27 722.79,-490.27 722.79,-490.27 726.42,-486.83 725.89,-493.54 730.05,-483.39 730.05,-483.39"/>
<polygon fill="#94e028" stroke="#94e028" points="774.75,-101.4 776.9,-90.65 773.63,-96.53 772.52,-91.65 772.52,-91.65 772.52,-91.65 773.63,-96.53 768.13,-92.66 774.75,-101.4 774.75,-101.4"/>
</g>
<!-- Group&#45;&gt;Survey -->
<g id="edge5" class="edge">
<title>Group&#45;&gt;Survey</title>
<path fill="none" stroke="#f8bc3a" d="M551.3,-587.51C534.53,-599.93 516.08,-613.6 497.68,-627.23"/>
<polygon fill="#f8bc3a" stroke="#f8bc3a" points="551.36,-587.47 562.07,-585.13 555.38,-584.49 559.4,-581.52 559.4,-581.52 559.4,-581.52 555.38,-584.49 556.72,-577.9 551.36,-587.47 551.36,-587.47"/>
<polygon fill="#f8bc3a" stroke="#f8bc3a" points="497.51,-627.35 486.8,-629.69 493.5,-630.33 489.48,-633.3 489.48,-633.3 489.48,-633.3 493.5,-630.33 492.16,-636.92 497.51,-627.35 497.51,-627.35"/>
<text text-anchor="middle" x="580" y="-603.8" font-family="Times,serif" font-size="14.00">entity_surveys</text>
</g>
<!-- Group&#45;&gt;User -->
<g id="edge9" class="edge">
<title>Group&#45;&gt;User</title>
<path fill="none" stroke="#4156c7" d="M442.08,-488.14C417.42,-480.86 399.63,-474.82 397.5,-472 390.84,-463.19 388.97,-455.2 390.71,-447.96"/>
<polygon fill="#4156c7" stroke="#4156c7" points="442.25,-488.19 450.6,-495.3 447.05,-489.58 451.85,-490.98 451.85,-490.98 451.85,-490.98 447.05,-489.58 453.11,-486.66 442.25,-488.19 442.25,-488.19"/>
<polygon fill="#4156c7" stroke="#4156c7" points="390.89,-447.58 399.27,-440.5 393.05,-443.07 395.21,-438.56 395.21,-438.56 395.21,-438.56 393.05,-443.07 391.15,-436.62 390.89,-447.58 390.89,-447.58"/>
<text text-anchor="middle" x="443" y="-460.8" font-family="Times,serif" font-size="14.00">owner_users</text>
</g>
<!-- Group&#45;&gt;User -->
<g id="edge11" class="edge">
<title>Group&#45;&gt;User</title>
<path fill="none" stroke="#cb11ed" d="M518.99,-482.82C516.21,-479.41 513.69,-475.81 511.5,-472 507.1,-464.34 506.46,-456.27 508.23,-448.27"/>
<polygon fill="#cb11ed" stroke="#cb11ed" points="519.18,-483.02 522.61,-493.44 522.55,-486.71 525.93,-490.4 525.93,-490.4 525.93,-490.4 522.55,-486.71 529.25,-487.36 519.18,-483.02 519.18,-483.02"/>
<polygon fill="#cb11ed" stroke="#cb11ed" points="508.3,-448.06 515.76,-440.03 509.9,-443.33 511.5,-438.59 511.5,-438.59 511.5,-438.59 509.9,-443.33 507.23,-437.15 508.3,-448.06 508.3,-448.06"/>
<text text-anchor="middle" x="564.5" y="-460.8" font-family="Times,serif" font-size="14.00">member_users</text>
</g>
<!-- Member -->
<g id="node11" class="node">
<title>Member</title>
<ellipse fill="none" stroke="black" cx="363.5" cy="-46" rx="50.09" ry="18"/>
<text text-anchor="middle" x="363.5" y="-42.3" font-family="Times,serif" font-size="14.00">Member</text>
</g>
<!-- GroupMember&#45;&gt;Member -->
<g id="edge15" class="edge">
<title>GroupMember&#45;&gt;Member</title>
<path fill="none" stroke="#07f221" d="M363.5,-134.03C363.5,-112.88 363.5,-90.91 363.5,-74.33"/>
<polygon fill="#07f221" stroke="#07f221" points="363.5,-134.2 359,-144.2 363.5,-139.2 363.5,-144.2 363.5,-144.2 363.5,-144.2 363.5,-139.2 368,-144.2 363.5,-134.2 363.5,-134.2"/>
<polygon fill="#07f221" stroke="#07f221" points="363.5,-74.27 368,-64.27 363.5,-69.27 363.5,-64.27 363.5,-64.27 363.5,-64.27 363.5,-69.27 359,-64.27 363.5,-74.27 363.5,-74.27"/>
</g>
<!-- Permission&#45;&gt;Role -->
<g id="edge16" class="edge">
<title>Permission&#45;&gt;Role</title>
<path fill="none" stroke="#ad6ee9" d="M870.36,-123.66C857.57,-114.73 844.81,-105.83 832.77,-97.43"/>
<polygon fill="#ad6ee9" stroke="#ad6ee9" points="870.4,-123.69 876.03,-133.1 874.5,-126.55 878.6,-129.41 878.6,-129.41 878.6,-129.41 874.5,-126.55 881.18,-125.72 870.4,-123.69 870.4,-123.69"/>
<polygon fill="#ad6ee9" stroke="#ad6ee9" points="832.75,-97.42 827.13,-88 828.65,-94.55 824.55,-91.69 824.55,-91.69 824.55,-91.69 828.65,-94.55 821.98,-95.38 832.75,-97.42 832.75,-97.42"/>
</g>
<!-- Owner -->
<g id="node12" class="node">
<title>Owner</title>
<ellipse fill="none" stroke="black" cx="1084.5" cy="-46" rx="41.69" ry="18"/>
<text text-anchor="middle" x="1084.5" y="-42.3" font-family="Times,serif" font-size="14.00">Owner</text>
</g>
<!-- Permission&#45;&gt;Owner -->
<g id="edge17" class="edge">
<title>Permission&#45;&gt;Owner</title>
<path fill="none" stroke="#3141c7" d="M1038.15,-120.51C1049.28,-102.85 1060.2,-85.53 1068.65,-72.14"/>
<polygon fill="#3141c7" stroke="#3141c7" points="1038.01,-120.72 1028.87,-126.78 1035.35,-124.95 1032.68,-129.18 1032.68,-129.18 1032.68,-129.18 1035.35,-124.95 1036.49,-131.58 1038.01,-120.72 1038.01,-120.72"/>
<polygon fill="#3141c7" stroke="#3141c7" points="1068.74,-72 1077.88,-65.94 1071.4,-67.77 1074.07,-63.54 1074.07,-63.54 1074.07,-63.54 1071.4,-67.77 1070.26,-61.14 1068.74,-72 1068.74,-72"/>
</g>
<!-- Entity -->
<g id="node13" class="node">
<title>Entity</title>
<ellipse fill="none" stroke="black" cx="985.5" cy="-46" rx="39.79" ry="18"/>
<text text-anchor="middle" x="985.5" y="-42.3" font-family="Times,serif" font-size="14.00">Entity</text>
</g>
<!-- Permission&#45;&gt;Entity -->
<g id="edge18" class="edge">
<title>Permission&#45;&gt;Entity</title>
<path fill="none" stroke="#03a5c4" d="M985.5,-118.91C985.5,-102.78 985.5,-87.02 985.5,-74.39"/>
<polygon fill="#03a5c4" stroke="#03a5c4" points="985.5,-119.18 981,-129.18 985.5,-124.18 985.5,-129.18 985.5,-129.18 985.5,-129.18 985.5,-124.18 990,-129.18 985.5,-119.18 985.5,-119.18"/>
<polygon fill="#03a5c4" stroke="#03a5c4" points="985.5,-74.16 990,-64.16 985.5,-69.16 985.5,-64.16 985.5,-64.16 985.5,-64.16 985.5,-69.16 981,-64.16 985.5,-74.16 985.5,-74.16"/>
</g>
<!-- Question -->
<g id="node7" class="node">
<title>Question</title>
<path fill="none" stroke="black" d="M931.5,-852.5C931.5,-852.5 1101.5,-852.5 1101.5,-852.5 1107.5,-852.5 1113.5,-858.5 1113.5,-864.5 1113.5,-864.5 1113.5,-931.5 1113.5,-931.5 1113.5,-937.5 1107.5,-943.5 1101.5,-943.5 1101.5,-943.5 931.5,-943.5 931.5,-943.5 925.5,-943.5 919.5,-937.5 919.5,-931.5 919.5,-931.5 919.5,-864.5 919.5,-864.5 919.5,-858.5 925.5,-852.5 931.5,-852.5"/>
<text text-anchor="middle" x="1016.5" y="-928.3" font-family="Times,serif" font-size="14.00">Question</text>
<polyline fill="none" stroke="black" points="919.5,-920.5 1113.5,-920.5 "/>
<text text-anchor="start" x="927.5" y="-905.3" font-family="Times,serif" font-size="14.00">_id :BSON::ObjectId</text>
<text text-anchor="start" x="927.5" y="-890.3" font-family="Times,serif" font-size="14.00">created_at :Time</text>
<text text-anchor="start" x="927.5" y="-875.3" font-family="Times,serif" font-size="14.00">questions_count :Integer</text>
<text text-anchor="start" x="927.5" y="-860.3" font-family="Times,serif" font-size="14.00">updated_at :Time</text>
</g>
<!-- Survey&#45;&gt;Group -->
<g id="edge20" class="edge">
<title>Survey&#45;&gt;Group</title>
<path fill="none" stroke="#134903" d="M398.08,-624.31C402.71,-615.35 408.43,-607 415.5,-600 423.75,-591.83 433.04,-584.72 442.99,-578.53"/>
<polygon fill="#134903" stroke="#134903" points="398.04,-624.39 389.73,-631.55 395.92,-628.92 393.8,-633.45 393.8,-633.45 393.8,-633.45 395.92,-628.92 397.88,-635.36 398.04,-624.39 398.04,-624.39"/>
<polygon fill="#134903" stroke="#134903" points="443.26,-578.37 454.16,-577.2 447.57,-575.85 451.89,-573.32 451.89,-573.32 451.89,-573.32 447.57,-575.85 449.61,-569.44 443.26,-578.37 443.26,-578.37"/>
<text text-anchor="middle" x="466" y="-603.8" font-family="Times,serif" font-size="14.00">owner_groups</text>
</g>
<!-- Survey&#45;&gt;Permission -->
<g id="edge19" class="edge">
<title>Survey&#45;&gt;Permission</title>
<path fill="none" stroke="#9f772e" d="M556.33,-711.86C768.81,-703.32 1105.6,-675.04 1184.5,-582 1201.21,-562.3 1208.01,-377.91 1182.5,-332 1173.18,-315.23 1160.59,-300.35 1146.25,-287.25"/>
<polygon fill="#9f772e" stroke="#9f772e" points="556.3,-711.87 546.14,-707.76 551.31,-712.06 546.31,-712.26 546.31,-712.26 546.31,-712.26 551.31,-712.06 546.49,-716.75 556.3,-711.87 556.3,-711.87"/>
<polygon fill="#9f772e" stroke="#9f772e" points="1146.12,-287.14 1141.56,-277.17 1142.36,-283.85 1138.6,-280.56 1138.6,-280.56 1138.6,-280.56 1142.36,-283.85 1135.63,-283.94 1146.12,-287.14 1146.12,-287.14"/>
<text text-anchor="middle" x="1277.5" y="-460.8" font-family="Times,serif" font-size="14.00">permissions_as_entity</text>
</g>
<!-- Survey&#45;&gt;User -->
<g id="edge21" class="edge">
<title>Survey&#45;&gt;User</title>
<path fill="none" stroke="#4cbbb3" d="M347.69,-623.51C338.63,-581.45 335.19,-531.8 352.5,-490 359.96,-471.98 372.04,-457.08 386.71,-444.75"/>
<polygon fill="#4cbbb3" stroke="#4cbbb3" points="347.74,-623.73 345.59,-634.48 348.86,-628.6 349.98,-633.48 349.98,-633.48 349.98,-633.48 348.86,-628.6 354.36,-632.47 347.74,-623.73 347.74,-623.73"/>
<polygon fill="#4cbbb3" stroke="#4cbbb3" points="386.75,-444.72 397.39,-442.07 390.68,-441.63 394.6,-438.54 394.6,-438.54 394.6,-438.54 390.68,-441.63 391.82,-435 386.75,-444.72 386.75,-444.72"/>
<text text-anchor="middle" x="398" y="-532.3" font-family="Times,serif" font-size="14.00">owner_users</text>
</g>
<!-- User&#45;&gt;Group -->
<g id="edge23" class="edge">
<title>User&#45;&gt;Group</title>
<path fill="none" stroke="#9017c0" d="M613.45,-447.77C614.97,-450.8 616.34,-453.88 617.5,-457 620.23,-464.32 621.83,-472.3 622.67,-480.27"/>
<polygon fill="#9017c0" stroke="#9017c0" points="613.34,-447.58 612.38,-436.65 610.9,-443.22 608.45,-438.85 608.45,-438.85 608.45,-438.85 610.9,-443.22 604.53,-441.06 613.34,-447.58 613.34,-447.58"/>
<polygon fill="#9017c0" stroke="#9017c0" points="622.68,-480.33 618.88,-490.61 623.02,-485.32 623.36,-490.31 623.36,-490.31 623.36,-490.31 623.02,-485.32 627.85,-490 622.68,-480.33 622.68,-480.33"/>
<text text-anchor="middle" x="670" y="-460.8" font-family="Times,serif" font-size="14.00">entity_groups</text>
</g>
<!-- User&#45;&gt;Group -->
<g id="edge27" class="edge">
<title>User&#45;&gt;Group</title>
<path fill="none" stroke="#0e34eb" d="M715.06,-445.96C718.11,-449.43 720.94,-453.11 723.5,-457 729.39,-465.94 729.52,-474.25 725.84,-481.85"/>
<polygon fill="#0e34eb" stroke="#0e34eb" points="714.98,-445.87 711.28,-435.55 711.51,-442.27 708.04,-438.67 708.04,-438.67 708.04,-438.67 711.51,-442.27 704.8,-441.79 714.98,-445.87 714.98,-445.87"/>
<polygon fill="#0e34eb" stroke="#0e34eb" points="725.57,-482.23 716.17,-487.87 722.72,-486.33 719.87,-490.44 719.87,-490.44 719.87,-490.44 722.72,-486.33 723.56,-493.01 725.57,-482.23 725.57,-482.23"/>
</g>
<!-- User&#45;&gt;GroupMember -->
<g id="edge26" class="edge">
<title>User&#45;&gt;GroupMember</title>
<path fill="none" stroke="#869e66" d="M494.63,-325.43C476.04,-308.49 455.63,-289.91 436.58,-272.55"/>
<polygon fill="#869e66" stroke="#869e66" points="494.89,-325.66 499.25,-335.72 498.59,-329.02 502.28,-332.39 502.28,-332.39 502.28,-332.39 498.59,-329.02 505.31,-329.06 494.89,-325.66 494.89,-325.66"/>
<polygon fill="#869e66" stroke="#869e66" points="436.46,-272.45 432.1,-262.39 432.77,-269.08 429.07,-265.71 429.07,-265.71 429.07,-265.71 432.77,-269.08 426.04,-269.04 436.46,-272.45 436.46,-272.45"/>
</g>
<!-- User&#45;&gt;Permission -->
<g id="edge22" class="edge">
<title>User&#45;&gt;Permission</title>
<path fill="none" stroke="#15b7b9" d="M612.1,-325.29C623.03,-315.44 635.03,-306.13 647.5,-299 696.36,-271.04 754.03,-251.15 807.78,-237.14"/>
<polygon fill="#15b7b9" stroke="#15b7b9" points="612.04,-325.35 601.66,-328.87 608.38,-328.76 604.72,-332.17 604.72,-332.17 604.72,-332.17 608.38,-328.76 607.79,-335.46 612.04,-325.35 612.04,-325.35"/>
<polygon fill="#15b7b9" stroke="#15b7b9" points="808.07,-237.06 818.88,-238.95 812.92,-235.82 817.76,-234.59 817.76,-234.59 817.76,-234.59 812.92,-235.82 816.65,-230.23 808.07,-237.06 808.07,-237.06"/>
<text text-anchor="middle" x="727.5" y="-302.8" font-family="Times,serif" font-size="14.00">permissions_as_owner</text>
</g>
<!-- User&#45;&gt;Role -->
<g id="edge25" class="edge">
<title>User&#45;&gt;Role</title>
<path fill="none" stroke="#112631" d="M595.9,-323.38C633.82,-259.7 692.65,-160.93 728.75,-100.32"/>
<polygon fill="#112631" stroke="#112631" points="595.8,-323.54 586.82,-329.83 593.24,-327.84 590.69,-332.14 590.69,-332.14 590.69,-332.14 593.24,-327.84 594.55,-334.44 595.8,-323.54 595.8,-323.54"/>
<polygon fill="#112631" stroke="#112631" points="728.78,-100.25 737.77,-93.96 731.34,-95.96 733.9,-91.66 733.9,-91.66 733.9,-91.66 731.34,-95.96 730.04,-89.36 728.78,-100.25 728.78,-100.25"/>
</g>
<!-- User&#45;&gt;Survey -->
<g id="edge24" class="edge">
<title>User&#45;&gt;Survey</title>
<path fill="none" stroke="#199929" d="M382.21,-432.83C310.37,-453.37 241.76,-476 231.5,-490 207.33,-522.98 214.95,-544.61 231.5,-582 238.44,-597.68 248.23,-612.31 259.51,-625.7"/>
<polygon fill="#199929" stroke="#199929" points="382.28,-432.81 393.13,-434.4 387.09,-431.44 391.9,-430.07 391.9,-430.07 391.9,-430.07 387.09,-431.44 390.67,-425.75 382.28,-432.81 382.28,-432.81"/>
<polygon fill="#199929" stroke="#199929" points="259.71,-625.92 262.93,-636.41 263.01,-629.68 266.31,-633.44 266.31,-633.44 266.31,-633.44 263.01,-629.68 269.69,-630.47 259.71,-625.92 259.71,-625.92"/>
<text text-anchor="middle" x="284" y="-532.3" font-family="Times,serif" font-size="14.00">entity_surveys</text>
</g>
</g>
</svg>
